<svg width="84" height="97" viewBox="0 0 84 97" fill="none" xmlns="http://www.w3.org/2000/svg">
<g clip-path="url(#clip0_1404_25116)">
<path d="M43.1786 48.1703L1.81821 24C1.31102 24.8911 1 25.8887 1 26.7943V69.5463C1 70.4471 1.31102 71.4495 1.81821 72.3358L43.1786 48.1703Z" fill="#A0B5EC"/>
<path d="M82.3494 22.054L45.7691 0.677989C44.9939 0.227611 43.9795 0 42.9699 0C41.9555 0 40.9459 0.227611 40.1708 0.677989L38.5008 1.65623L3.58565 22.054C2.81528 22.5044 2.11669 23.2792 1.6095 24.1655L42.9651 48.3309L82.3446 25.318C83.8949 24.4221 83.8949 22.9548 82.3494 22.054Z" fill="#6688E0"/>
<path d="M82.3492 71.3439L42.9697 48.3311L1.61407 72.4965C2.12127 73.3827 2.81986 74.1576 3.59023 74.608L40.1753 95.984C40.9505 96.4344 41.9601 96.662 42.9745 96.662C43.9889 96.662 44.9985 96.4344 45.7736 95.984L82.354 74.608C83.8947 73.712 83.8947 72.2495 82.3492 71.3439Z" fill="white"/>
</g>
<defs>
<clipPath id="clip0_1404_25116">
<rect width="82.716" height="96.6667" fill="white" transform="translate(0.790833)"/>
</clipPath>
</defs>
</svg>
