<svg width="20" height="21" viewBox="0 0 20 21" fill="none" xmlns="http://www.w3.org/2000/svg">
<g clip-path="url(#clip0_1717_40595)">
<path d="M13.7491 0.27832C12.6829 0.35207 11.4366 1.03457 10.7104 1.92331C10.0479 2.72956 9.50292 3.92705 9.71542 5.09079C10.8804 5.12704 12.0841 4.4283 12.7816 3.52455C13.4341 2.68331 13.9279 1.49331 13.7491 0.27832Z" fill="black"/>
<path d="M17.9629 6.98821C16.9391 5.70447 15.5004 4.95947 14.1416 4.95947C12.3479 4.95947 11.5892 5.81822 10.3429 5.81822C9.05792 5.81822 8.08168 4.96197 6.53044 4.96197C5.0067 4.96197 3.38421 5.89322 2.35546 7.48571C0.90922 9.7282 1.15672 13.9444 3.50045 17.5357C4.3392 18.8206 5.45919 20.2656 6.92418 20.2781C8.22793 20.2906 8.59543 19.4419 10.3617 19.4331C12.1279 19.4231 12.4629 20.2894 13.7641 20.2756C15.2304 20.2644 16.4116 18.6631 17.2504 17.3782C17.8516 16.4569 18.0754 15.9932 18.5416 14.9532C15.1504 13.6619 14.6066 8.83945 17.9629 6.98821Z" fill="black"/>
</g>
<defs>
<clipPath id="clip0_1717_40595">
<rect width="20" height="20" fill="white" transform="translate(0 0.27832)"/>
</clipPath>
</defs>
</svg>
