<svg width="20" height="21" viewBox="0 0 20 21" fill="none" xmlns="http://www.w3.org/2000/svg">
<path d="M12.5 19.2365H7.49999C2.97499 19.2365 1.04166 17.3032 1.04166 12.7782V7.77816C1.04166 3.25316 2.97499 1.31982 7.49999 1.31982H12.5C17.025 1.31982 18.9583 3.25316 18.9583 7.77816V12.7782C18.9583 17.3032 17.025 19.2365 12.5 19.2365ZM7.49999 2.56982C3.65832 2.56982 2.29166 3.93649 2.29166 7.77816V12.7782C2.29166 16.6198 3.65832 17.9865 7.49999 17.9865H12.5C16.3417 17.9865 17.7083 16.6198 17.7083 12.7782V7.77816C17.7083 3.93649 16.3417 2.56982 12.5 2.56982H7.49999Z" fill="#BBBBBB"/>
<path d="M11.6667 15.0702H8.33334C6.60834 15.0702 5.20834 13.6702 5.20834 11.9452V8.61182C5.20834 6.88682 6.60834 5.48682 8.33334 5.48682H11.6667C13.3917 5.48682 14.7917 6.88682 14.7917 8.61182V11.9452C14.7917 13.6702 13.3917 15.0702 11.6667 15.0702ZM8.33334 6.73682C7.30001 6.73682 6.45834 7.57848 6.45834 8.61182V11.9452C6.45834 12.9785 7.30001 13.8202 8.33334 13.8202H11.6667C12.7 13.8202 13.5417 12.9785 13.5417 11.9452V8.61182C13.5417 7.57848 12.7 6.73682 11.6667 6.73682H8.33334Z" fill="#BBBBBB"/>
<path d="M10 15.0702C9.65833 15.0702 9.375 14.7868 9.375 14.4452V6.11182C9.375 5.77015 9.65833 5.48682 10 5.48682C10.3417 5.48682 10.625 5.77015 10.625 6.11182V14.4452C10.625 14.7868 10.3417 15.0702 10 15.0702Z" fill="#BBBBBB"/>
<path d="M14.1667 10.9033H5.83334C5.49168 10.9033 5.20834 10.62 5.20834 10.2783C5.20834 9.93665 5.49168 9.65332 5.83334 9.65332H14.1667C14.5083 9.65332 14.7917 9.93665 14.7917 10.2783C14.7917 10.62 14.5083 10.9033 14.1667 10.9033Z" fill="#BBBBBB"/>
</svg>
