<svg width="21" height="20" viewBox="0 0 21 20" fill="none" xmlns="http://www.w3.org/2000/svg">
<path d="M14.8667 18.9582H6.1334C3.80006 18.9582 2.31673 17.5665 2.1834 15.2415L1.75006 8.3665C1.6834 7.32484 2.04173 6.32484 2.7584 5.5665C3.46673 4.80817 4.46673 4.37484 5.50006 4.37484C5.76673 4.37484 6.02506 4.2165 6.15006 3.9665L6.75006 2.77484C7.24173 1.79984 8.47506 1.0415 9.55006 1.0415H11.4584C12.5334 1.0415 13.7584 1.79984 14.2501 2.7665L14.8501 3.98317C14.9751 4.2165 15.2251 4.37484 15.5001 4.37484C16.5334 4.37484 17.5334 4.80817 18.2417 5.5665C18.9584 6.33317 19.3167 7.32484 19.2501 8.3665L18.8167 15.2498C18.6667 17.6082 17.2251 18.9582 14.8667 18.9582ZM9.55006 2.2915C8.9334 2.2915 8.15006 2.77484 7.86673 3.33317L7.26673 4.53317C6.91673 5.20817 6.24173 5.62484 5.50006 5.62484C4.80006 5.62484 4.15006 5.90817 3.66673 6.4165C3.19173 6.92484 2.95006 7.5915 3.00006 8.28317L3.4334 15.1665C3.5334 16.8498 4.44173 17.7082 6.1334 17.7082H14.8667C16.5501 17.7082 17.4584 16.8498 17.5667 15.1665L18.0001 8.28317C18.0417 7.5915 17.8084 6.92484 17.3334 6.4165C16.8501 5.90817 16.2001 5.62484 15.5001 5.62484C14.7584 5.62484 14.0834 5.20817 13.7334 4.54984L13.1251 3.33317C12.8501 2.78317 12.0667 2.29984 11.4501 2.29984H9.55006V2.2915Z" fill="#406AD8"/>
<path d="M11.75 7.2915H9.25C8.90833 7.2915 8.625 7.00817 8.625 6.6665C8.625 6.32484 8.90833 6.0415 9.25 6.0415H11.75C12.0917 6.0415 12.375 6.32484 12.375 6.6665C12.375 7.00817 12.0917 7.2915 11.75 7.2915Z" fill="#406AD8"/>
<path d="M10.5001 15.6252C8.65841 15.6252 7.16675 14.1335 7.16675 12.2918C7.16675 10.4502 8.65841 8.9585 10.5001 8.9585C12.3417 8.9585 13.8334 10.4502 13.8334 12.2918C13.8334 14.1335 12.3417 15.6252 10.5001 15.6252ZM10.5001 10.2085C9.35008 10.2085 8.41675 11.1418 8.41675 12.2918C8.41675 13.4418 9.35008 14.3752 10.5001 14.3752C11.6501 14.3752 12.5834 13.4418 12.5834 12.2918C12.5834 11.1418 11.6501 10.2085 10.5001 10.2085Z" fill="#406AD8"/>
</svg>
