<svg width="20" height="21" viewBox="0 0 20 21" fill="none" xmlns="http://www.w3.org/2000/svg">
<path d="M14.5417 19.2365C13.6 19.2365 12.6083 19.0115 11.5833 18.5782C10.5833 18.1532 9.57499 17.5698 8.59166 16.8615C7.61666 16.1448 6.67499 15.3448 5.78332 14.4698C4.89999 13.5782 4.09999 12.6365 3.39166 11.6698C2.67499 10.6698 2.09999 9.66982 1.69166 8.70316C1.25832 7.66982 1.04166 6.66982 1.04166 5.72816C1.04166 5.07816 1.15832 4.46149 1.38332 3.88649C1.61666 3.29482 1.99166 2.74482 2.49999 2.26982C3.14166 1.63649 3.87499 1.31982 4.65832 1.31982C4.98332 1.31982 5.31666 1.39482 5.59999 1.52816C5.92499 1.67816 6.19999 1.90316 6.39999 2.20316L8.33332 4.92816C8.50832 5.16982 8.64166 5.40316 8.73332 5.63649C8.84166 5.88649 8.89999 6.13649 8.89999 6.37816C8.89999 6.69482 8.80832 7.00316 8.63332 7.29482C8.50832 7.51982 8.31666 7.76149 8.07499 8.00316L7.50832 8.59482C7.51666 8.61982 7.52499 8.63649 7.53332 8.65316C7.63332 8.82816 7.83332 9.12816 8.21666 9.57816C8.62499 10.0448 9.00832 10.4698 9.39166 10.8615C9.88332 11.3448 10.2917 11.7282 10.675 12.0448C11.15 12.4448 11.4583 12.6448 11.6417 12.7365L11.625 12.7782L12.2333 12.1782C12.4917 11.9198 12.7417 11.7282 12.9833 11.6032C13.4417 11.3198 14.025 11.2698 14.6083 11.5115C14.825 11.6032 15.0583 11.7282 15.3083 11.9032L18.075 13.8698C18.3833 14.0782 18.6083 14.3448 18.7417 14.6615C18.8667 14.9782 18.925 15.2698 18.925 15.5615C18.925 15.9615 18.8333 16.3615 18.6583 16.7365C18.4833 17.1115 18.2667 17.4365 17.9917 17.7365C17.5167 18.2615 17 18.6365 16.4 18.8782C15.825 19.1115 15.2 19.2365 14.5417 19.2365ZM4.65832 2.56982C4.19999 2.56982 3.77499 2.76982 3.36666 3.16982C2.98332 3.52816 2.71666 3.91982 2.54999 4.34482C2.37499 4.77816 2.29166 5.23649 2.29166 5.72816C2.29166 6.50316 2.47499 7.34482 2.84166 8.21149C3.21666 9.09482 3.74166 10.0115 4.40832 10.9282C5.07499 11.8448 5.83332 12.7365 6.66666 13.5782C7.49999 14.4032 8.39999 15.1698 9.32499 15.8448C10.225 16.5032 11.15 17.0365 12.0667 17.4198C13.4917 18.0282 14.825 18.1698 15.925 17.7115C16.35 17.5365 16.725 17.2698 17.0667 16.8865C17.2583 16.6782 17.4083 16.4532 17.5333 16.1865C17.6333 15.9782 17.6833 15.7615 17.6833 15.5448C17.6833 15.4115 17.6583 15.2782 17.5917 15.1282C17.5667 15.0782 17.5167 14.9865 17.3583 14.8782L14.5917 12.9115C14.425 12.7948 14.275 12.7115 14.1333 12.6532C13.95 12.5782 13.875 12.5032 13.5917 12.6782C13.425 12.7615 13.275 12.8865 13.1083 13.0532L12.475 13.6782C12.15 13.9948 11.65 14.0698 11.2667 13.9282L11.0417 13.8282C10.7 13.6448 10.3 13.3615 9.85832 12.9865C9.45832 12.6448 9.02499 12.2448 8.49999 11.7282C8.09166 11.3115 7.68332 10.8698 7.25832 10.3782C6.86666 9.91982 6.58332 9.52816 6.40832 9.20316L6.30832 8.95316C6.25832 8.76149 6.24166 8.65316 6.24166 8.53649C6.24166 8.23649 6.34999 7.96982 6.55832 7.76149L7.18332 7.11149C7.34999 6.94482 7.47499 6.78649 7.55832 6.64482C7.62499 6.53649 7.64999 6.44482 7.64999 6.36149C7.64999 6.29482 7.62499 6.19482 7.58332 6.09482C7.52499 5.96149 7.43332 5.81149 7.31666 5.65316L5.38332 2.91982C5.29999 2.80316 5.19999 2.71982 5.07499 2.66149C4.94166 2.60316 4.79999 2.56982 4.65832 2.56982ZM11.625 12.7865L11.4917 13.3532L11.7167 12.7698C11.675 12.7615 11.6417 12.7698 11.625 12.7865Z" fill="#BBBBBB"/>
</svg>
