<svg width="24" height="24" viewBox="0 0 24 24" fill="none" xmlns="http://www.w3.org/2000/svg">
<path d="M3.91 17.1804C3.72 17.1804 3.53 17.1104 3.38 16.9604C2.01 15.5804 1.25 13.7604 1.25 11.8304C1.25 7.82042 4.5 4.56042 8.5 4.56042L14.57 4.58042L13.48 3.54042C13.18 3.25042 13.17 2.78042 13.46 2.48042C13.75 2.18042 14.22 2.17042 14.52 2.46042L16.96 4.80042C17.18 5.01042 17.25 5.34042 17.14 5.62042C17.03 5.90042 16.75 6.09042 16.44 6.09042L8.5 6.07042C5.33 6.07042 2.75 8.66042 2.75 11.8404C2.75 13.3704 3.35 14.8204 4.44 15.9104C4.73 16.2004 4.73 16.6804 4.44 16.9704C4.29 17.1104 4.1 17.1804 3.91 17.1804Z" fill="#1C1C1C"/>
<path d="M9.99999 21.75C9.80999 21.75 9.62999 21.68 9.47999 21.54L7.03999 19.2C6.81999 18.99 6.74999 18.66 6.85999 18.38C6.97999 18.1 7.25999 17.95 7.55999 17.91L15.51 17.93C18.68 17.93 21.26 15.34 21.26 12.16C21.26 10.63 20.66 9.18 19.57 8.09C19.28 7.8 19.28 7.32 19.57 7.03C19.86 6.74 20.34 6.74 20.63 7.03C22 8.41 22.76 10.23 22.76 12.16C22.76 16.17 19.51 19.43 15.51 19.43L9.43999 19.41L10.53 20.45C10.83 20.74 10.84 21.21 10.55 21.51C10.39 21.67 10.2 21.75 9.99999 21.75Z" fill="#1C1C1C"/>
</svg>
