<svg width="33" height="32" viewBox="0 0 33 32" fill="none" xmlns="http://www.w3.org/2000/svg">
<path d="M24.5 8.00033C23.6867 8.00033 22.94 7.53366 22.5667 6.81366L21.6067 4.88033C20.9933 3.66699 19.3933 2.66699 18.0333 2.66699H14.98C13.6067 2.66699 12.0067 3.66699 11.3933 4.88033L10.4333 6.81366C10.06 7.53366 9.31332 8.00033 8.49999 8.00033C5.60666 8.00033 3.31332 10.4403 3.49999 13.3203L4.19332 24.3337C4.35332 27.0803 5.83332 29.3337 9.51332 29.3337H23.4867C27.1667 29.3337 28.6333 27.0803 28.8067 24.3337L29.5 13.3203C29.6867 10.4403 27.3933 8.00033 24.5 8.00033ZM14.5 9.66699H18.5C19.0467 9.66699 19.5 10.1203 19.5 10.667C19.5 11.2137 19.0467 11.667 18.5 11.667H14.5C13.9533 11.667 13.5 11.2137 13.5 10.667C13.5 10.1203 13.9533 9.66699 14.5 9.66699ZM16.5 24.1603C14.02 24.1603 11.9933 22.147 11.9933 19.6537C11.9933 17.1603 14.0067 15.147 16.5 15.147C18.9933 15.147 21.0067 17.1603 21.0067 19.6537C21.0067 22.147 18.98 24.1603 16.5 24.1603Z" fill="#406AD8"/>
</svg>
