<svg width="25" height="24" viewBox="0 0 25 24" fill="none" xmlns="http://www.w3.org/2000/svg">
<path d="M21.28 22H14.24C13.82 22 13.49 21.66 13.49 21.25C13.49 20.84 13.83 20.5 14.24 20.5H21.28C21.7 20.5 22.03 20.84 22.03 21.25C22.03 21.66 21.7 22 21.28 22Z" fill="#9A9A9A"/>
<path d="M13.89 16.6904C14.28 17.0804 14.28 17.7104 13.89 18.1104L10.91 21.0904C9.8 22.2004 8.02 22.2604 6.84 21.2704C6.77 21.2104 6.71 21.1504 6.65 21.0904L5.78 20.2204L3.99 18.4304L3.13 17.5704C3.06 17.5004 3 17.4304 2.94 17.3604C1.96 16.1804 2.03 14.4204 3.13 13.3204L6.11 10.3404C6.5 9.95035 7.13 9.95035 7.52 10.3404L13.89 16.6904Z" fill="#9A9A9A"/>
<path d="M21.37 10.6404L16.37 15.6404C15.98 16.0304 15.35 16.0304 14.96 15.6404L8.58999 9.29043C8.19999 8.90043 8.19999 8.27043 8.58999 7.87043L13.59 2.88043C14.76 1.71043 16.68 1.71043 17.85 2.88043L21.37 6.39043C22.54 7.56043 22.54 9.47043 21.37 10.6404Z" fill="#9A9A9A"/>
</svg>
