<svg width="20" height="21" viewBox="0 0 20 21" fill="none" xmlns="http://www.w3.org/2000/svg">
<path d="M14.1667 17.9865H5.83333C2.79167 17.9865 1.04167 16.2365 1.04167 13.1948V7.36149C1.04167 4.31982 2.79167 2.56982 5.83333 2.56982H14.1667C17.2083 2.56982 18.9583 4.31982 18.9583 7.36149V13.1948C18.9583 16.2365 17.2083 17.9865 14.1667 17.9865ZM5.83333 3.81982C3.45 3.81982 2.29167 4.97816 2.29167 7.36149V13.1948C2.29167 15.5782 3.45 16.7365 5.83333 16.7365H14.1667C16.55 16.7365 17.7083 15.5782 17.7083 13.1948V7.36149C17.7083 4.97816 16.55 3.81982 14.1667 3.81982H5.83333Z" fill="#BBBBBB"/>
<path d="M9.99981 11.0033C9.29981 11.0033 8.59148 10.7866 8.04982 10.345L5.44148 8.26163C5.17481 8.04496 5.12482 7.65329 5.34148 7.38663C5.55815 7.11996 5.94982 7.06996 6.21649 7.28663L8.82481 9.36996C9.45814 9.8783 10.5331 9.8783 11.1665 9.36996L13.7748 7.28663C14.0415 7.06996 14.4415 7.11163 14.6498 7.38663C14.8665 7.65329 14.8248 8.0533 14.5498 8.26163L11.9415 10.345C11.4081 10.7866 10.6998 11.0033 9.99981 11.0033Z" fill="#BBBBBB"/>
</svg>
