<svg width="20" height="21" viewBox="0 0 20 21" fill="none" xmlns="http://www.w3.org/2000/svg">
<path d="M10 13.8866C8.00833 13.8866 6.39166 12.2699 6.39166 10.2783C6.39166 8.28659 8.00833 6.66992 10 6.66992C11.9917 6.66992 13.6083 8.28659 13.6083 10.2783C13.6083 12.2699 11.9917 13.8866 10 13.8866ZM10 7.91992C8.7 7.91992 7.64166 8.97826 7.64166 10.2783C7.64166 11.5783 8.7 12.6366 10 12.6366C11.3 12.6366 12.3583 11.5783 12.3583 10.2783C12.3583 8.97826 11.3 7.91992 10 7.91992Z" fill="#BBBBBB"/>
<path d="M9.99999 17.7951C6.86666 17.7951 3.90833 15.9617 1.87499 12.7784C0.991661 11.4034 0.991661 9.16172 1.87499 7.77839C3.91666 4.59505 6.87499 2.76172 9.99999 2.76172C13.125 2.76172 16.0833 4.59505 18.1167 7.77839C19 9.15339 19 11.3951 18.1167 12.7784C16.0833 15.9617 13.125 17.7951 9.99999 17.7951ZM9.99999 4.01172C7.30833 4.01172 4.73333 5.62839 2.93333 8.45339C2.30833 9.42839 2.30833 11.1284 2.93333 12.1034C4.73333 14.9284 7.30833 16.5451 9.99999 16.5451C12.6917 16.5451 15.2667 14.9284 17.0667 12.1034C17.6917 11.1284 17.6917 9.42839 17.0667 8.45339C15.2667 5.62839 12.6917 4.01172 9.99999 4.01172Z" fill="#BBBBBB"/>
</svg>
