<svg width="20" height="21" viewBox="0 0 20 21" fill="none" xmlns="http://www.w3.org/2000/svg">
<path d="M7.89167 13.0116C7.73333 13.0116 7.575 12.9533 7.45 12.8283C6.76667 12.1449 6.39167 11.2366 6.39167 10.2783C6.39167 8.28659 8.00833 6.66992 10 6.66992C10.9583 6.66992 11.8667 7.04492 12.55 7.72825C12.6667 7.84492 12.7333 8.00326 12.7333 8.16992C12.7333 8.33659 12.6667 8.49492 12.55 8.61159L8.33333 12.8283C8.20833 12.9533 8.05 13.0116 7.89167 13.0116ZM10 7.91992C8.7 7.91992 7.64167 8.97826 7.64167 10.2783C7.64167 10.6949 7.75 11.0949 7.95 11.4449L11.1667 8.22826C10.8167 8.02826 10.4167 7.91992 10 7.91992Z" fill="#BBBBBB"/>
<path d="M4.66667 15.7034C4.525 15.7034 4.375 15.6534 4.25833 15.5534C3.36667 14.7951 2.56667 13.8617 1.88333 12.7784C0.999999 11.4034 0.999999 9.16172 1.88333 7.77839C3.91667 4.59505 6.875 2.76172 10 2.76172C11.8333 2.76172 13.6417 3.39505 15.225 4.58672C15.5 4.79505 15.5583 5.18672 15.35 5.46172C15.1417 5.73672 14.75 5.79505 14.475 5.58672C13.1083 4.55339 11.5583 4.01172 10 4.01172C7.30833 4.01172 4.73333 5.62839 2.93333 8.45339C2.30833 9.42839 2.30833 11.1284 2.93333 12.1034C3.55833 13.0784 4.275 13.9201 5.06667 14.6034C5.325 14.8284 5.35833 15.2201 5.13333 15.4867C5.01667 15.6284 4.84167 15.7034 4.66667 15.7034Z" fill="#BBBBBB"/>
<path d="M10 17.7949C8.89167 17.7949 7.80833 17.5699 6.76667 17.1282C6.45 16.9949 6.3 16.6282 6.43333 16.3116C6.56667 15.9949 6.93333 15.8449 7.25 15.9782C8.13333 16.3532 9.05833 16.5449 9.99167 16.5449C12.6833 16.5449 15.2583 14.9282 17.0583 12.1032C17.6833 11.1282 17.6833 9.42824 17.0583 8.45324C16.8 8.0449 16.5167 7.65324 16.2167 7.28657C16 7.0199 16.0417 6.62824 16.3083 6.40324C16.575 6.18657 16.9667 6.2199 17.1917 6.4949C17.5167 6.8949 17.8333 7.32824 18.1167 7.77824C19 9.15324 19 11.3949 18.1167 12.7782C16.0833 15.9616 13.125 17.7949 10 17.7949Z" fill="#BBBBBB"/>
<path d="M10.575 13.8365C10.2833 13.8365 10.0167 13.6281 9.95833 13.3281C9.89167 12.9865 10.1167 12.6615 10.4583 12.6031C11.375 12.4365 12.1417 11.6698 12.3083 10.7531C12.375 10.4115 12.7 10.1948 13.0417 10.2531C13.3833 10.3198 13.6083 10.6448 13.5417 10.9865C13.275 12.4281 12.125 13.5698 10.6917 13.8365C10.65 13.8281 10.6167 13.8365 10.575 13.8365Z" fill="#BBBBBB"/>
<path d="M1.66667 19.2366C1.50833 19.2366 1.35 19.1783 1.225 19.0533C0.983334 18.8116 0.983334 18.4116 1.225 18.1699L7.45 11.9449C7.69167 11.7033 8.09167 11.7033 8.33333 11.9449C8.575 12.1866 8.575 12.5866 8.33333 12.8283L2.10833 19.0533C1.98333 19.1783 1.825 19.2366 1.66667 19.2366Z" fill="#BBBBBB"/>
<path d="M12.1083 8.79518C11.95 8.79518 11.7917 8.73685 11.6667 8.61185C11.425 8.37018 11.425 7.97018 11.6667 7.72852L17.8917 1.50352C18.1333 1.26185 18.5333 1.26185 18.775 1.50352C19.0167 1.74518 19.0167 2.14518 18.775 2.38685L12.55 8.61185C12.425 8.73685 12.2667 8.79518 12.1083 8.79518Z" fill="#BBBBBB"/>
</svg>
