<svg width="16" height="17" viewBox="0 0 16 17" fill="none" xmlns="http://www.w3.org/2000/svg">
<path d="M3.69332 13.292C3.28666 13.292 2.90666 13.152 2.63332 12.892C2.28666 12.5653 2.11999 12.072 2.17999 11.5387L2.42666 9.37868C2.47332 8.97201 2.71999 8.43201 3.00666 8.13868L8.47999 2.34535C9.84666 0.898678 11.2733 0.858679 12.72 2.22535C14.1667 3.59201 14.2067 5.01868 12.84 6.46535L7.36666 12.2587C7.08666 12.5587 6.56666 12.8387 6.15999 12.9053L4.01332 13.272C3.89999 13.2787 3.79999 13.292 3.69332 13.292ZM10.62 2.21868C10.1067 2.21868 9.65999 2.53868 9.20666 3.01868L3.73332 8.81868C3.59999 8.95868 3.44666 9.29201 3.41999 9.48535L3.17332 11.6453C3.14666 11.8653 3.19999 12.0453 3.31999 12.1587C3.43999 12.272 3.61999 12.312 3.83999 12.2787L5.98666 11.912C6.17999 11.8787 6.49999 11.7053 6.63332 11.5653L12.1067 5.77201C12.9333 4.89201 13.2333 4.07868 12.0267 2.94535C11.4933 2.43201 11.0333 2.21868 10.62 2.21868Z" fill="#406AD8"/>
<path d="M11.56 7.57854C11.5467 7.57854 11.5267 7.57854 11.5133 7.57854C9.43333 7.37188 7.76 5.79188 7.44 3.72521C7.4 3.45188 7.58666 3.19855 7.86 3.15188C8.13333 3.11188 8.38666 3.29855 8.43333 3.57188C8.68666 5.18521 9.99333 6.42521 11.62 6.58521C11.8933 6.61188 12.0933 6.85854 12.0667 7.13188C12.0333 7.38521 11.8133 7.57854 11.56 7.57854Z" fill="#406AD8"/>
<path d="M14 15.4453H2C1.72667 15.4453 1.5 15.2186 1.5 14.9453C1.5 14.672 1.72667 14.4453 2 14.4453H14C14.2733 14.4453 14.5 14.672 14.5 14.9453C14.5 15.2186 14.2733 15.4453 14 15.4453Z" fill="#406AD8"/>
</svg>
