<svg width="25" height="24" viewBox="0 0 25 24" fill="none" xmlns="http://www.w3.org/2000/svg">
<path d="M21.72 1H18.78C17.91 1 17.27 1.36 16.98 2C16.82 2.29 16.75 2.63 16.75 3.03V5.97C16.75 7.24 17.51 8 18.78 8H21.72C22.12 8 22.46 7.93 22.75 7.77C23.39 7.48 23.75 6.84 23.75 5.97V3.03C23.75 1.76 22.99 1 21.72 1ZM22.66 4.93C22.56 5.03 22.41 5.1 22.25 5.11H20.84V5.62L20.85 6.5C20.84 6.67 20.78 6.81 20.66 6.93C20.56 7.03 20.41 7.1 20.25 7.1C19.92 7.1 19.65 6.83 19.65 6.5V5.1L18.25 5.11C17.92 5.11 17.65 4.83 17.65 4.5C17.65 4.17 17.92 3.9 18.25 3.9L19.13 3.91H19.65V2.51C19.65 2.18 19.92 1.9 20.25 1.9C20.58 1.9 20.85 2.18 20.85 2.51L20.84 3.22V3.9H22.25C22.58 3.9 22.85 4.17 22.85 4.5C22.84 4.67 22.77 4.81 22.66 4.93Z" fill="#9A9A9A"/>
<path d="M9.75 10.3801C11.0644 10.3801 12.13 9.31456 12.13 8.00012C12.13 6.68568 11.0644 5.62012 9.75 5.62012C8.43556 5.62012 7.37 6.68568 7.37 8.00012C7.37 9.31456 8.43556 10.3801 9.75 10.3801Z" fill="#9A9A9A"/>
<path d="M21.72 8H21.25V12.61L21.12 12.5C20.34 11.83 19.08 11.83 18.3 12.5L14.14 16.07C13.36 16.74 12.1 16.74 11.32 16.07L10.98 15.79C10.27 15.17 9.14 15.11 8.34 15.65L4.6 18.16C4.38 17.6 4.25 16.95 4.25 16.19V7.81C4.25 4.99 5.74 3.5 8.56 3.5H16.75V3.03C16.75 2.63 16.82 2.29 16.98 2H8.56C4.92 2 2.75 4.17 2.75 7.81V16.19C2.75 17.28 2.94 18.23 3.31 19.03C4.17 20.93 6.01 22 8.56 22H16.94C20.58 22 22.75 19.83 22.75 16.19V7.77C22.46 7.93 22.12 8 21.72 8Z" fill="#9A9A9A"/>
</svg>
