<svg width="20" height="21" viewBox="0 0 20 21" fill="none" xmlns="http://www.w3.org/2000/svg">
<g clip-path="url(#clip0_1717_40604)">
<path d="M19.2448 8.53994L11.087 8.53955C10.7268 8.53955 10.4348 8.8315 10.4348 9.19174V11.7978C10.4348 12.1579 10.7268 12.45 11.087 12.45H15.681C15.1779 13.7555 14.239 14.8488 13.0411 15.5435L15 18.9345C18.1423 17.1172 20 13.9285 20 10.3591C20 9.85084 19.9625 9.48752 19.8876 9.07842C19.8307 8.7676 19.5608 8.53994 19.2448 8.53994Z" fill="#406AD8"/>
<path d="M10 16.3654C7.75179 16.3654 5.78914 15.137 4.73504 13.3193L1.34418 15.2738C3.06976 18.2645 6.30234 20.2784 10 20.2784C11.8139 20.2784 13.5255 19.79 15 18.9389V18.9343L13.0411 15.5432C12.1451 16.0629 11.1082 16.3654 10 16.3654Z" fill="#12B347"/>
<path d="M15 18.9386V18.934L13.0411 15.543C12.1451 16.0626 11.1083 16.3651 10 16.3651V20.2782C11.8139 20.2782 13.5256 19.7898 15 18.9386Z" fill="#0F993E"/>
<path d="M3.91305 10.2786C3.91305 9.17039 4.21547 8.13363 4.73504 7.23766L1.34418 5.2832C0.488359 6.75301 0 8.45996 0 10.2786C0 12.0971 0.488359 13.8041 1.34418 15.2739L4.73504 13.3194C4.21547 12.4235 3.91305 11.3867 3.91305 10.2786Z" fill="#FFD500"/>
<path d="M10 4.19137C11.4661 4.19137 12.8127 4.7123 13.8645 5.57883C14.124 5.79258 14.5012 5.77715 14.7389 5.53945L16.5853 3.69297C16.855 3.42328 16.8358 2.98184 16.5477 2.73191C14.7854 1.20305 12.4925 0.27832 10 0.27832C6.30234 0.27832 3.06976 2.29227 1.34418 5.28297L4.73504 7.23742C5.78914 5.41973 7.75179 4.19137 10 4.19137Z" fill="#FF4B26"/>
<path d="M13.8645 5.57883C14.124 5.79258 14.5012 5.77715 14.7389 5.53945L16.5854 3.69297C16.855 3.42328 16.8358 2.98184 16.5477 2.73191C14.7854 1.20301 12.4925 0.27832 10 0.27832V4.19137C11.466 4.19137 12.8127 4.7123 13.8645 5.57883Z" fill="#D93F21"/>
</g>
<defs>
<clipPath id="clip0_1717_40604">
<rect width="20" height="20" fill="white" transform="translate(0 0.27832)"/>
</clipPath>
</defs>
</svg>
