<svg width="20" height="20" viewBox="0 0 20 20" fill="none" xmlns="http://www.w3.org/2000/svg">
<path d="M14.5333 12.8076C14.375 12.8076 14.2167 12.7492 14.0917 12.6242C13.85 12.3826 13.85 11.9826 14.0917 11.7409L15.7833 10.0492L14.0917 8.35755C13.85 8.11588 13.85 7.71589 14.0917 7.47422C14.3333 7.23255 14.7333 7.23255 14.975 7.47422L17.1083 9.60755C17.35 9.84922 17.35 10.2492 17.1083 10.4909L14.975 12.6242C14.85 12.7492 14.6917 12.8076 14.5333 12.8076Z" fill="white"/>
<path d="M16.6083 10.6758H8.1333C7.79163 10.6758 7.5083 10.3924 7.5083 10.0508C7.5083 9.70911 7.79163 9.42578 8.1333 9.42578H16.6083C16.95 9.42578 17.2333 9.70911 17.2333 10.0508C17.2333 10.3924 16.95 10.6758 16.6083 10.6758Z" fill="white"/>
<path d="M9.79997 17.2923C5.5083 17.2923 2.5083 14.2923 2.5083 10.0007C2.5083 5.70898 5.5083 2.70898 9.79997 2.70898C10.1416 2.70898 10.425 2.99232 10.425 3.33398C10.425 3.67565 10.1416 3.95898 9.79997 3.95898C6.24163 3.95898 3.7583 6.44232 3.7583 10.0007C3.7583 13.559 6.24163 16.0423 9.79997 16.0423C10.1416 16.0423 10.425 16.3257 10.425 16.6673C10.425 17.009 10.1416 17.2923 9.79997 17.2923Z" fill="white"/>
</svg>
