<svg width="20" height="20" viewBox="0 0 20 20" fill="none" xmlns="http://www.w3.org/2000/svg">
<path d="M15 8.95866C14.6583 8.95866 14.375 8.67533 14.375 8.33366V6.66699C14.375 4.04199 13.6333 2.29199 10 2.29199C6.36667 2.29199 5.625 4.04199 5.625 6.66699V8.33366C5.625 8.67533 5.34167 8.95866 5 8.95866C4.65833 8.95866 4.375 8.67533 4.375 8.33366V6.66699C4.375 4.25033 4.95833 1.04199 10 1.04199C15.0417 1.04199 15.625 4.25033 15.625 6.66699V8.33366C15.625 8.67533 15.3417 8.95866 15 8.95866Z" fill="white"/>
<path d="M9.99996 16.0417C8.50829 16.0417 7.29163 14.825 7.29163 13.3333C7.29163 11.8417 8.50829 10.625 9.99996 10.625C11.4916 10.625 12.7083 11.8417 12.7083 13.3333C12.7083 14.825 11.4916 16.0417 9.99996 16.0417ZM9.99996 11.875C9.19996 11.875 8.54163 12.5333 8.54163 13.3333C8.54163 14.1333 9.19996 14.7917 9.99996 14.7917C10.8 14.7917 11.4583 14.1333 11.4583 13.3333C11.4583 12.5333 10.8 11.875 9.99996 11.875Z" fill="white"/>
<path d="M14.1666 18.958H5.83329C2.15829 18.958 1.04163 17.8413 1.04163 14.1663V12.4997C1.04163 8.82467 2.15829 7.70801 5.83329 7.70801H14.1666C17.8416 7.70801 18.9583 8.82467 18.9583 12.4997V14.1663C18.9583 17.8413 17.8416 18.958 14.1666 18.958ZM5.83329 8.95801C2.84996 8.95801 2.29163 9.52467 2.29163 12.4997V14.1663C2.29163 17.1413 2.84996 17.708 5.83329 17.708H14.1666C17.15 17.708 17.7083 17.1413 17.7083 14.1663V12.4997C17.7083 9.52467 17.15 8.95801 14.1666 8.95801H5.83329Z" fill="white"/>
</svg>
