<svg width="20" height="21" viewBox="0 0 20 21" fill="none" xmlns="http://www.w3.org/2000/svg">
<path d="M10.1333 9.96149C10.1083 9.96149 10.0917 9.96149 10.0667 9.96149C10.025 9.95316 9.96665 9.95316 9.91665 9.96149C7.49999 9.88649 5.67499 7.98649 5.67499 5.64482C5.67499 3.26149 7.61665 1.31982 9.99999 1.31982C12.3833 1.31982 14.325 3.26149 14.325 5.64482C14.3167 7.98649 12.4833 9.88649 10.1583 9.96149C10.15 9.96149 10.1417 9.96149 10.1333 9.96149ZM9.99999 2.56982C8.30832 2.56982 6.92499 3.95316 6.92499 5.64482C6.92499 7.31149 8.22499 8.65316 9.88332 8.71149C9.92499 8.70316 10.0417 8.70316 10.15 8.71149C11.7833 8.63649 13.0667 7.29482 13.075 5.64482C13.075 3.95316 11.6917 2.56982 9.99999 2.56982Z" fill="#BBBBBB"/>
<path d="M10.1416 19.0701C8.50831 19.0701 6.86665 18.6535 5.62498 17.8201C4.46665 17.0535 3.83331 16.0035 3.83331 14.8618C3.83331 13.7201 4.46665 12.6618 5.62498 11.8868C8.12498 10.2285 12.175 10.2285 14.6583 11.8868C15.8083 12.6535 16.45 13.7035 16.45 14.8451C16.45 15.9868 15.8166 17.0451 14.6583 17.8201C13.4083 18.6535 11.775 19.0701 10.1416 19.0701ZM6.31665 12.9368C5.51665 13.4701 5.08331 14.1535 5.08331 14.8701C5.08331 15.5785 5.52498 16.2618 6.31665 16.7868C8.39165 18.1785 11.8916 18.1785 13.9666 16.7868C14.7666 16.2535 15.2 15.5701 15.2 14.8535C15.2 14.1451 14.7583 13.4618 13.9666 12.9368C11.8916 11.5535 8.39165 11.5535 6.31665 12.9368Z" fill="#BBBBBB"/>
</svg>
