<svg width="24" height="24" viewBox="0 0 24 24" fill="none" xmlns="http://www.w3.org/2000/svg">
<path d="M20.02 10.7004L17.9 12.0404C17.5 12.2904 16.99 12.2304 16.66 11.9004L12.13 7.37041C11.8 7.04041 11.74 6.53041 11.99 6.13041L13.33 4.01041C14.15 2.72041 15.79 2.66041 17 3.86041L20.18 7.04041C21.3 8.17041 21.23 9.93041 20.02 10.7004Z" fill="#9A9A9A"/>
<path d="M14.71 19.9498L5.99003 20.9698C5.91235 20.9801 5.83568 20.9874 5.76008 20.9919C5.07495 21.0323 4.90508 20.2247 5.39038 19.7394L7.98003 17.1498C8.30003 16.8398 8.30003 16.3498 7.98003 16.0398C7.68003 15.7298 7.19003 15.7298 6.87003 16.0398L4.28038 18.6294C3.79508 19.1147 2.99495 18.9441 3.03136 18.2588C3.03518 18.1868 3.04138 18.1138 3.05003 18.0398L4.08003 9.31975C4.34003 7.13975 5.14003 6.41975 7.44003 6.55975L8.94003 6.64975C9.43003 6.67975 9.89003 6.88975 10.24 7.23975L16.79 13.7898C17.14 14.1398 17.35 14.5998 17.37 15.0898L17.46 16.5898C17.69 18.8998 16.9 19.6998 14.71 19.9498Z" fill="#9A9A9A"/>
</svg>
