<svg width="25" height="24" viewBox="0 0 25 24" fill="none" xmlns="http://www.w3.org/2000/svg">
<path d="M12.75 2C10.13 2 8 4.13 8 6.75C8 9.32 10.01 11.4 12.63 11.49C12.71 11.48 12.79 11.48 12.85 11.49C12.87 11.49 12.88 11.49 12.9 11.49C12.91 11.49 12.91 11.49 12.92 11.49C15.48 11.4 17.49 9.32 17.5 6.75C17.5 4.13 15.37 2 12.75 2Z" fill="#9A9A9A"/>
<path d="M17.83 14.1509C15.04 12.2909 10.49 12.2909 7.68002 14.1509C6.41002 15.0009 5.71002 16.1509 5.71002 17.3809C5.71002 18.6109 6.41002 19.7509 7.67002 20.5909C9.07002 21.5309 10.91 22.0009 12.75 22.0009C14.59 22.0009 16.43 21.5309 17.83 20.5909C19.09 19.7409 19.79 18.6009 19.79 17.3609C19.78 16.1309 19.09 14.9909 17.83 14.1509Z" fill="#9A9A9A"/>
</svg>
