<svg width="20" height="20" viewBox="0 0 20 20" fill="none" xmlns="http://www.w3.org/2000/svg">
<path d="M6.66663 18.5998C6.43329 18.5998 6.19161 18.5415 5.97495 18.4249C5.49995 18.1749 5.20829 17.6748 5.20829 17.1415V15.9582C2.69163 15.6999 1.04163 13.8498 1.04163 11.1998V6.19987C1.04163 3.3332 2.96663 1.4082 5.83329 1.4082H14.1666C17.0333 1.4082 18.9583 3.3332 18.9583 6.19987V11.1998C18.9583 14.0665 17.0333 15.9915 14.1666 15.9915H11.0249L7.47494 18.3582C7.23327 18.5166 6.94996 18.5998 6.66663 18.5998ZM5.83329 2.64986C3.68329 2.64986 2.29163 4.04153 2.29163 6.19153V11.1916C2.29163 13.3416 3.68329 14.7332 5.83329 14.7332C6.17496 14.7332 6.45829 15.0166 6.45829 15.3582V17.1332C6.45829 17.2416 6.52496 17.2916 6.56663 17.3166C6.6083 17.3416 6.69164 17.3666 6.78331 17.3082L10.4916 14.8416C10.5916 14.7749 10.7166 14.7332 10.8416 14.7332H14.175C16.325 14.7332 17.7166 13.3416 17.7166 11.1916V6.19153C17.7166 4.04153 16.325 2.64986 14.175 2.64986H5.83329Z" fill="white"/>
<path d="M9.99989 10.0918C9.65822 10.0918 9.37489 9.80846 9.37489 9.4668V9.29183C9.37489 8.32516 10.0832 7.85015 10.3499 7.66682C10.6582 7.45849 10.7582 7.31683 10.7582 7.10016C10.7582 6.68349 10.4166 6.3418 9.99989 6.3418C9.58322 6.3418 9.24158 6.68349 9.24158 7.10016C9.24158 7.44183 8.95824 7.72516 8.61658 7.72516C8.27491 7.72516 7.99158 7.44183 7.99158 7.10016C7.99158 5.99183 8.89155 5.0918 9.99989 5.0918C11.1082 5.0918 12.0082 5.99183 12.0082 7.10016C12.0082 8.05016 11.3082 8.52514 11.0499 8.70014C10.7249 8.91681 10.6249 9.0585 10.6249 9.29183V9.4668C10.6249 9.8168 10.3416 10.0918 9.99989 10.0918Z" fill="white"/>
<path d="M10 12.166C9.65 12.166 9.375 11.8827 9.375 11.541C9.375 11.1993 9.65833 10.916 10 10.916C10.3417 10.916 10.625 11.1993 10.625 11.541C10.625 11.8827 10.35 12.166 10 12.166Z" fill="white"/>
</svg>
