<svg width="20" height="20" viewBox="0 0 20 20" fill="none" xmlns="http://www.w3.org/2000/svg">
<path d="M10 13.125C8.275 13.125 6.875 11.725 6.875 10C6.875 8.275 8.275 6.875 10 6.875C11.725 6.875 13.125 8.275 13.125 10C13.125 11.725 11.725 13.125 10 13.125ZM10 8.125C8.96667 8.125 8.125 8.96667 8.125 10C8.125 11.0333 8.96667 11.875 10 11.875C11.0333 11.875 11.875 11.0333 11.875 10C11.875 8.96667 11.0333 8.125 10 8.125Z" fill="white"/>
<path d="M12.675 18.4913C12.5 18.4913 12.325 18.4663 12.15 18.4246C11.6333 18.2829 11.2 17.9579 10.925 17.4996L10.825 17.3329C10.3333 16.4829 9.65829 16.4829 9.16663 17.3329L9.07496 17.4913C8.79996 17.9579 8.36663 18.2913 7.84996 18.4246C7.32496 18.5663 6.78329 18.4913 6.32496 18.2163L4.89163 17.3913C4.38329 17.0996 4.01663 16.6246 3.85829 16.0496C3.70829 15.4746 3.78329 14.8829 4.07496 14.3746C4.31663 13.9496 4.38329 13.5663 4.24163 13.3246C4.09996 13.0829 3.74163 12.9413 3.24996 12.9413C2.03329 12.9413 1.04163 11.9496 1.04163 10.7329V9.26625C1.04163 8.04959 2.03329 7.05792 3.24996 7.05792C3.74163 7.05792 4.09996 6.91625 4.24163 6.67459C4.38329 6.43292 4.32496 6.04959 4.07496 5.62459C3.78329 5.11625 3.70829 4.51625 3.85829 3.94959C4.00829 3.37459 4.37496 2.89959 4.89163 2.60792L6.33329 1.78292C7.27496 1.22459 8.51663 1.54959 9.08329 2.50792L9.18329 2.67459C9.67496 3.52459 10.35 3.52459 10.8416 2.67459L10.9333 2.51625C11.5 1.54959 12.7416 1.22459 13.6916 1.79125L15.125 2.61625C15.6333 2.90792 16 3.38292 16.1583 3.95792C16.3083 4.53292 16.2333 5.12459 15.9416 5.63292C15.7 6.05792 15.6333 6.44126 15.775 6.68292C15.9166 6.92459 16.275 7.06625 16.7666 7.06625C17.9833 7.06625 18.975 8.05792 18.975 9.27459V10.7413C18.975 11.9579 17.9833 12.9496 16.7666 12.9496C16.275 12.9496 15.9166 13.0913 15.775 13.3329C15.6333 13.5746 15.6916 13.9579 15.9416 14.3829C16.2333 14.8913 16.3166 15.4913 16.1583 16.0579C16.0083 16.6329 15.6416 17.1079 15.125 17.3996L13.6833 18.2246C13.3666 18.3996 13.025 18.4913 12.675 18.4913ZM9.99996 15.4079C10.7416 15.4079 11.4333 15.8746 11.9083 16.6996L12 16.8579C12.1 17.0329 12.2666 17.1579 12.4666 17.2079C12.6666 17.2579 12.8666 17.2329 13.0333 17.1329L14.475 16.2996C14.6916 16.1746 14.8583 15.9663 14.925 15.7163C14.9916 15.4663 14.9583 15.2079 14.8333 14.9913C14.3583 14.1746 14.3 13.3329 14.6666 12.6913C15.0333 12.0496 15.7916 11.6829 16.7416 11.6829C17.275 11.6829 17.7 11.2579 17.7 10.7246V9.25792C17.7 8.73292 17.275 8.29959 16.7416 8.29959C15.7916 8.29959 15.0333 7.93292 14.6666 7.29125C14.3 6.64959 14.3583 5.80792 14.8333 4.99125C14.9583 4.77459 14.9916 4.51625 14.925 4.26625C14.8583 4.01625 14.7 3.81625 14.4833 3.68292L13.0416 2.85792C12.6833 2.64125 12.2083 2.76625 11.9916 3.13292L11.9 3.29125C11.425 4.11625 10.7333 4.58292 9.99163 4.58292C9.24996 4.58292 8.55829 4.11625 8.08329 3.29125L7.99163 3.12459C7.78329 2.77459 7.31663 2.64959 6.95829 2.85792L5.51663 3.69125C5.29996 3.81625 5.13329 4.02459 5.06663 4.27459C4.99996 4.52459 5.03329 4.78292 5.15829 4.99959C5.63329 5.81625 5.69163 6.65792 5.32496 7.29959C4.95829 7.94126 4.19996 8.30792 3.24996 8.30792C2.71663 8.30792 2.29163 8.73292 2.29163 9.26625V10.7329C2.29163 11.2579 2.71663 11.6913 3.24996 11.6913C4.19996 11.6913 4.95829 12.0579 5.32496 12.6996C5.69163 13.3413 5.63329 14.1829 5.15829 14.9996C5.03329 15.2163 4.99996 15.4746 5.06663 15.7246C5.13329 15.9746 5.29163 16.1746 5.50829 16.3079L6.94996 17.1329C7.12496 17.2413 7.33329 17.2663 7.52496 17.2163C7.72496 17.1663 7.89163 17.0329 7.99996 16.8579L8.09163 16.6996C8.56663 15.8829 9.25829 15.4079 9.99996 15.4079Z" fill="white"/>
</svg>
