<svg width="25" height="24" viewBox="0 0 25 24" fill="none" xmlns="http://www.w3.org/2000/svg">
<path d="M21.45 4.13C21.16 3.71 20.79 3.34 20.37 3.05C19.42 2.36 18.18 2 16.69 2H8.31C8.11 2 7.91 2.01 7.72 2.03C4.44 2.24 2.5 4.37 2.5 7.81V16.19C2.5 17.68 2.86 18.92 3.55 19.87C3.84 20.29 4.21 20.66 4.63 20.95C5.45 21.55 6.49 21.9 7.72 21.98C7.91 21.99 8.11 22 8.31 22H16.69C20.33 22 22.5 19.83 22.5 16.19V7.81C22.5 6.32 22.14 5.08 21.45 4.13ZM19.25 8.9C19.25 9.31 18.91 9.65 18.5 9.65C18.09 9.65 17.75 9.31 17.75 8.9V7.72C17.75 7.4 17.49 7.14 17.17 7.14H13.25V16.86H15.03C15.44 16.86 15.78 17.2 15.78 17.61C15.78 18.02 15.44 18.36 15.03 18.36H9.97C9.56 18.36 9.22 18.02 9.22 17.61C9.22 17.2 9.56 16.86 9.97 16.86H11.75V7.14H7.83C7.51 7.14 7.25 7.4 7.25 7.72V8.9C7.25 9.31 6.91 9.65 6.5 9.65C6.09 9.65 5.75 9.31 5.75 8.9V7.72C5.75 6.57 6.68 5.64 7.83 5.64H17.16C18.31 5.64 19.24 6.57 19.24 7.72V8.9H19.25Z" fill="#406AD8"/>
</svg>
