<svg width="24" height="23" viewBox="0 0 24 23" fill="none" xmlns="http://www.w3.org/2000/svg">
<g clip-path="url(#clip0_1445_32441)">
<path d="M18.9904 9.69954C18.3437 6.41835 15.4619 3.95508 12 3.95508C9.25142 3.95508 6.86424 5.51483 5.6754 7.7974C2.81268 8.10174 0.587173 10.527 0.587173 13.4658C0.587173 16.6138 3.14555 19.1722 6.2936 19.1722H18.6575C21.2825 19.1722 23.4129 17.0418 23.4129 14.4169C23.4129 11.906 21.4632 9.87074 18.9904 9.69954ZM13.9022 12.5147V16.319H10.0979V12.5147H7.24467L11.6671 8.09223C11.8574 7.90202 12.1522 7.90202 12.3424 8.09223L16.7554 12.5147H13.9022Z" fill="#E9E9E9"/>
</g>
<defs>
<clipPath id="clip0_1445_32441">
<rect width="22.8257" height="22.8257" fill="white" transform="translate(0.587173 0.151367)"/>
</clipPath>
</defs>
</svg>
